<svg xmlns="http://www.w3.org/2000/svg" width="34" height="20" viewBox="0 0 34 20"><g><g><g opacity=".6"><path fill="#170f1c" d="M1.5 0h31A1.5 1.5 0 0 1 34 1.5v1A1.5 1.5 0 0 1 32.5 4h-31A1.5 1.5 0 0 1 0 2.5v-1A1.5 1.5 0 0 1 1.5 0z"/></g><g opacity=".6"><path fill="#170f1c" d="M1.5 8h31A1.5 1.5 0 0 1 34 9.5v1a1.5 1.5 0 0 1-1.5 1.5h-31A1.5 1.5 0 0 1 0 10.5v-1A1.5 1.5 0 0 1 1.5 8z"/></g><g opacity=".6"><path fill="#170f1c" d="M1.5 16h31a1.5 1.5 0 0 1 1.5 1.5v1a1.5 1.5 0 0 1-1.5 1.5h-31A1.5 1.5 0 0 1 0 18.5v-1A1.5 1.5 0 0 1 1.5 16z"/></g></g></g></svg>